<svg width="50" height="19" viewBox="0 0 50 19" fill="none" xmlns="http://www.w3.org/2000/svg">
<path d="M21.785 13.6962L18.8657 5.52222H20.6538L22.7192 11.5724L24.7189 5.52222H26.4705L23.5439 13.6962H21.785Z" fill="#1F28AF"/>
<path d="M27.3315 13.6962V5.52222H28.9371L32.2797 10.9813V5.52222H33.8123V13.6962H32.1557L28.8642 8.36852V13.6962H27.3315Z" fill="#1F28AF"/>
<path d="M37.6439 13.6962L34.7246 5.52222H36.5127L38.5781 11.5724L40.5778 5.52222H42.3293L39.4028 13.6962H37.6439Z" fill="#1F28AF"/>
<path d="M48.4017 10.6893L50 11.2002C49.7519 12.0906 49.3505 12.7547 48.7739 13.1853C48.2046 13.6159 47.4821 13.8349 46.6063 13.8349C45.5189 13.8349 44.6285 13.4627 43.9279 12.7255C43.2273 11.9811 42.877 10.974 42.877 9.68219C42.877 8.32472 43.2273 7.26648 43.9279 6.51477C44.6285 5.76305 45.5554 5.38354 46.7012 5.38354C47.7011 5.38354 48.5112 5.67547 49.1388 6.26663C49.511 6.61694 49.7884 7.12052 49.9781 7.77006L48.3433 8.15686C48.2484 7.73357 48.0441 7.39785 47.7376 7.15701C47.431 6.90887 47.0588 6.7921 46.6209 6.7921C46.0152 6.7921 45.5262 7.01104 45.1467 7.44164C44.7672 7.87953 44.5774 8.58016 44.5774 9.55082C44.5774 10.5872 44.7599 11.317 45.1321 11.7549C45.5043 12.1928 45.986 12.4117 46.5844 12.4117C47.0223 12.4117 47.4018 12.2731 47.7157 11.9957C48.0368 11.733 48.263 11.2878 48.4017 10.6893Z" fill="#1F28AF"/>
<path d="M14.8371 3.4715C14.8079 2.95333 14.7568 2.44246 14.6911 1.93888C14.224 1.71994 13.7496 1.51559 13.2607 1.34043C12.7863 1.16527 12.3046 1.01931 11.8156 0.887939C11.9324 1.36232 12.0273 1.83671 12.0929 2.32569C12.1586 2.79277 12.2024 3.26715 12.2243 3.75613C12.2316 3.95319 12.2389 4.15024 12.2389 4.33999C12.2389 8.60214 10.3779 12.4337 7.42939 15.0757C7.10097 15.3676 6.75796 15.6522 6.40034 15.9222C6.04273 16.185 5.67052 16.4404 5.29102 16.6667C5.61943 16.9805 5.96975 17.287 6.32006 17.5716C6.67767 17.8636 7.04988 18.1409 7.42939 18.4036C7.8089 18.1409 8.18111 17.8636 8.53872 17.5716C8.89633 17.287 9.23935 16.9805 9.56777 16.6667C12.6768 13.7036 14.6692 9.57281 14.8444 4.98953C14.8517 4.77059 14.859 4.55894 14.859 4.33999C14.859 4.04806 14.8517 3.76343 14.8371 3.4715Z" fill="url(#paint0_linear)"/>
<path d="M14.8373 3.43503C14.8081 2.91685 14.757 2.40598 14.6913 1.9024C14.2242 1.68346 13.7498 1.4864 13.2608 1.30395C12.7865 1.12879 12.3048 0.982828 11.8158 0.851461C10.4145 0.471954 8.9476 0.274902 7.42957 0.274902C5.91155 0.274902 4.44461 0.471954 3.04335 0.851461C2.55437 0.982828 2.07269 1.13609 1.59831 1.30395C1.10933 1.47911 0.634944 1.68346 0.167859 1.9024C0.094877 2.40598 0.0437897 2.92415 0.0218951 3.43503C0.00729871 3.71966 0 4.01158 0 4.30351C0 4.52246 0.00729854 4.73411 0.0145967 4.95305C0.430594 4.70491 0.868487 4.47137 1.31368 4.25972C1.74427 4.05537 2.18216 3.87292 2.63465 3.71966C4.13808 3.18689 5.75099 2.90226 7.42957 2.90226C9.10816 2.90226 10.7211 3.19418 12.2245 3.71966C12.677 3.88022 13.1149 4.06267 13.5455 4.25972C13.9907 4.47137 14.4213 4.70491 14.8446 4.95305C14.8518 4.7414 14.8591 4.52246 14.8591 4.30351C14.8591 4.01158 14.8518 3.72695 14.8373 3.43503Z" fill="url(#paint1_linear)"/>
<path d="M8.46597 15.8857C8.10836 15.623 7.76534 15.3384 7.43692 15.0465C4.48845 12.4045 2.6347 8.57294 2.6347 4.31079C2.6347 4.11374 2.642 3.91669 2.6493 3.72693C2.6712 3.24525 2.71498 2.77087 2.78067 2.29649C2.84635 1.80751 2.94123 1.32582 3.058 0.85144C2.56902 0.982808 2.08734 1.13607 1.61296 1.30393C1.12398 1.47909 0.649592 1.68344 0.182507 1.90238C0.109525 2.40596 0.0584375 2.92413 0.0365429 3.43501C0.0219464 3.71964 0.0146484 4.01156 0.0146484 4.30349C0.0146484 4.52244 0.0219463 4.73409 0.0292445 4.95303C0.204401 9.53631 2.18951 13.6671 5.30585 16.6302C5.63427 16.944 5.98458 17.2505 6.3349 17.5351C6.69251 17.8271 7.06472 18.1044 7.44422 18.3671C7.82373 18.1044 8.19594 17.8271 8.55355 17.5351C8.91116 17.2432 9.25418 16.944 9.5826 16.6302C9.18849 16.3966 8.82358 16.1485 8.46597 15.8857Z" fill="url(#paint2_linear)"/>
<path d="M6.50284 11.8206V9.0765H3.73682V7.18626H6.50284V4.44214H8.34928V7.18626H11.1226V9.0765H8.34928V11.8206H6.50284Z" fill="url(#paint3_linear)"/>
<defs>
<linearGradient id="paint0_linear" x1="13.9719" y1="5.04857" x2="-4.13469" y2="25.9792" gradientUnits="userSpaceOnUse">
<stop stop-color="#FFF236"/>
<stop offset="0.0711" stop-color="#FDE637"/>
<stop offset="0.373" stop-color="#F5B63D"/>
<stop offset="0.6393" stop-color="#F09341"/>
<stop offset="0.8573" stop-color="#EC7E44"/>
<stop offset="1" stop-color="#EB7645"/>
</linearGradient>
<linearGradient id="paint1_linear" x1="0.00350314" y1="2.61405" x2="14.8589" y2="2.61405" gradientUnits="userSpaceOnUse">
<stop stop-color="#FFF10E"/>
<stop offset="1" stop-color="#EB7633"/>
</linearGradient>
<linearGradient id="paint2_linear" x1="6.90999" y1="8.57966" x2="1.48786" y2="11.2907" gradientUnits="userSpaceOnUse">
<stop stop-color="#FFF10E"/>
<stop offset="1" stop-color="#EB7633"/>
</linearGradient>
<linearGradient id="paint3_linear" x1="9.95102" y1="5.87762" x2="4.9084" y2="10.3833" gradientUnits="userSpaceOnUse">
<stop offset="0.00239158" stop-color="#FFF10E"/>
<stop offset="1" stop-color="#EB7633"/>
</linearGradient>
</defs>
</svg>
